<svg xmlns="http://www.w3.org/2000/svg" xmlns:xlink="http://www.w3.org/1999/xlink" contentStyleType="text/css" data-diagram-type="CLASS" height="464px" preserveAspectRatio="none" style="width:917px;height:464px;background:#FFFFFF;" version="1.1" viewBox="0 0 917 464" width="917px" zoomAndPan="magnify"><defs/><g><!--class User--><g class="entity" data-qualified-name="User" data-source-line="4" id="ent0002"><rect fill="#F1F1F1" height="178.375" rx="2.5" ry="2.5" style="stroke:#181818;stroke-width:0.5;" width="212.2793" x="220.27" y="7"/><ellipse cx="306.2046" cy="23" fill="#ADD1B2" rx="11" ry="11" style="stroke:#181818;stroke-width:1;"/><path d="M309.1733,28.6406 Q308.5952,28.9375 307.9546,29.0781 Q307.3139,29.2344 306.6108,29.2344 Q304.1108,29.2344 302.7827,27.5938 Q301.4702,25.9375 301.4702,22.8125 Q301.4702,19.6875 302.7827,18.0313 Q304.1108,16.375 306.6108,16.375 Q307.3139,16.375 307.9546,16.5313 Q308.6108,16.6875 309.1733,16.9844 L309.1733,19.7031 Q308.5483,19.125 307.9546,18.8594 Q307.3608,18.5781 306.7358,18.5781 Q305.3921,18.5781 304.7046,19.6563 Q304.0171,20.7188 304.0171,22.8125 Q304.0171,24.9063 304.7046,25.9844 Q305.3921,27.0469 306.7358,27.0469 Q307.3608,27.0469 307.9546,26.7813 Q308.5483,26.5 309.1733,25.9219 L309.1733,28.6406 Z " fill="#000000"/><text fill="#000000" font-family="sans-serif" font-size="14" lengthAdjust="spacing" textLength="31.9102" x="326.7046" y="27.8467">User</text><line style="stroke:#181818;stroke-width:0.5;" x1="221.27" x2="431.5493" y1="39" y2="39"/><text fill="#000000" font-family="sans-serif" font-size="14" lengthAdjust="spacing" textLength="104.7744" x="226.27" y="55.9951">-id : Long &#171;PK&#187;</text><text fill="#000000" font-family="sans-serif" font-size="14" lengthAdjust="spacing" textLength="200.2793" x="226.27" y="72.292">-username : String &#171;unique&#187;</text><text fill="#000000" font-family="sans-serif" font-size="14" lengthAdjust="spacing" textLength="127.1621" x="226.27" y="88.5889">-password : String</text><text fill="#000000" font-family="sans-serif" font-size="14" lengthAdjust="spacing" textLength="192.0557" x="226.27" y="104.8857">-createdAt : LocalDateTime</text><line style="stroke:#181818;stroke-width:1;" x1="221.27" x2="431.5493" y1="112.1875" y2="112.1875"/><text fill="#000000" font-family="sans-serif" font-size="14" lengthAdjust="spacing" textLength="106.4014" x="226.27" y="129.1826">+getId() : Long</text><text fill="#000000" font-family="sans-serif" font-size="14" lengthAdjust="spacing" textLength="172.6553" x="226.27" y="145.4795">+getUsername() : String</text><text fill="#000000" font-family="sans-serif" font-size="14" lengthAdjust="spacing" textLength="174.5967" x="226.27" y="161.7764">+getRoles() : Set&lt;Role&gt;</text><text fill="#000000" font-family="sans-serif" font-size="14" lengthAdjust="spacing" textLength="180.7695" x="226.27" y="178.0732">+getNotes() : List&lt;Note&gt;</text></g><!--class Role--><g class="entity" data-qualified-name="Role" data-source-line="16" id="ent0003"><rect fill="#F1F1F1" height="129.4844" rx="2.5" ry="2.5" style="stroke:#181818;stroke-width:0.5;" width="188.8252" x="7" y="294.97"/><ellipse cx="81.7646" cy="310.97" fill="#ADD1B2" rx="11" ry="11" style="stroke:#181818;stroke-width:1;"/><path d="M84.7334,316.6106 Q84.1553,316.9075 83.5146,317.0481 Q82.874,317.2044 82.1709,317.2044 Q79.6709,317.2044 78.3428,315.5637 Q77.0303,313.9075 77.0303,310.7825 Q77.0303,307.6575 78.3428,306.0012 Q79.6709,304.345 82.1709,304.345 Q82.874,304.345 83.5146,304.5012 Q84.1709,304.6575 84.7334,304.9544 L84.7334,307.6731 Q84.1084,307.095 83.5146,306.8294 Q82.9209,306.5481 82.2959,306.5481 Q80.9521,306.5481 80.2646,307.6262 Q79.5771,308.6887 79.5771,310.7825 Q79.5771,312.8762 80.2646,313.9544 Q80.9521,315.0169 82.2959,315.0169 Q82.9209,315.0169 83.5146,314.7512 Q84.1084,314.47 84.7334,313.8919 L84.7334,316.6106 Z " fill="#000000"/><text fill="#000000" font-family="sans-serif" font-size="14" lengthAdjust="spacing" textLength="30.7959" x="102.2646" y="315.8167">Role</text><line style="stroke:#181818;stroke-width:0.5;" x1="8" x2="194.8252" y1="326.97" y2="326.97"/><text fill="#000000" font-family="sans-serif" font-size="14" lengthAdjust="spacing" textLength="104.7744" x="13" y="343.9651">-id : Long &#171;PK&#187;</text><text fill="#000000" font-family="sans-serif" font-size="14" lengthAdjust="spacing" textLength="169.7432" x="13" y="360.262">-name : String &#171;unique&#187;</text><line style="stroke:#181818;stroke-width:1;" x1="8" x2="194.8252" y1="367.5637" y2="367.5637"/><text fill="#000000" font-family="sans-serif" font-size="14" lengthAdjust="spacing" textLength="106.4014" x="13" y="384.5589">+getId() : Long</text><text fill="#000000" font-family="sans-serif" font-size="14" lengthAdjust="spacing" textLength="142.3447" x="13" y="400.8557">+getName() : String</text><text fill="#000000" font-family="sans-serif" font-size="14" lengthAdjust="spacing" textLength="176.8252" x="13" y="417.1526">+getUsers() : Set&lt;User&gt;</text></g><!--class Note--><g class="entity" data-qualified-name="Note" data-source-line="25" id="ent0004"><rect fill="#F1F1F1" height="194.6719" rx="2.5" ry="2.5" style="stroke:#181818;stroke-width:0.5;" width="208.6357" x="448.09" y="262.38"/><ellipse cx="531.5876" cy="278.38" fill="#ADD1B2" rx="11" ry="11" style="stroke:#181818;stroke-width:1;"/><path d="M534.5563,284.0206 Q533.9782,284.3175 533.3376,284.4581 Q532.6969,284.6144 531.9938,284.6144 Q529.4938,284.6144 528.1657,282.9738 Q526.8532,281.3175 526.8532,278.1925 Q526.8532,275.0675 528.1657,273.4113 Q529.4938,271.755 531.9938,271.755 Q532.6969,271.755 533.3376,271.9113 Q533.9938,272.0675 534.5563,272.3644 L534.5563,275.0831 Q533.9313,274.505 533.3376,274.2394 Q532.7438,273.9581 532.1188,273.9581 Q530.7751,273.9581 530.0876,275.0363 Q529.4001,276.0988 529.4001,278.1925 Q529.4001,280.2863 530.0876,281.3644 Q530.7751,282.4269 532.1188,282.4269 Q532.7438,282.4269 533.3376,282.1613 Q533.9313,281.88 534.5563,281.3019 L534.5563,284.0206 Z " fill="#000000"/><text fill="#000000" font-family="sans-serif" font-size="14" lengthAdjust="spacing" textLength="33.1406" x="552.0876" y="283.2267">Note</text><line style="stroke:#181818;stroke-width:0.5;" x1="449.09" x2="655.7257" y1="294.38" y2="294.38"/><text fill="#000000" font-family="sans-serif" font-size="14" lengthAdjust="spacing" textLength="104.7744" x="454.09" y="311.3751">-id : Long &#171;PK&#187;</text><text fill="#000000" font-family="sans-serif" font-size="14" lengthAdjust="spacing" textLength="87.8213" x="454.09" y="327.672">-title : String</text><text fill="#000000" font-family="sans-serif" font-size="14" lengthAdjust="spacing" textLength="174.5898" x="454.09" y="343.9689">-content : String &#171;HTML&#187;</text><text fill="#000000" font-family="sans-serif" font-size="14" lengthAdjust="spacing" textLength="192.0557" x="454.09" y="360.2657">-createdAt : LocalDateTime</text><text fill="#000000" font-family="sans-serif" font-size="14" lengthAdjust="spacing" textLength="196.6357" x="454.09" y="376.5626">-updatedAt : LocalDateTime</text><line style="stroke:#181818;stroke-width:1;" x1="449.09" x2="655.7257" y1="383.8644" y2="383.8644"/><text fill="#000000" font-family="sans-serif" font-size="14" lengthAdjust="spacing" textLength="106.4014" x="454.09" y="400.8595">+getId() : Long</text><text fill="#000000" font-family="sans-serif" font-size="14" lengthAdjust="spacing" textLength="131.4756" x="454.09" y="417.1564">+getTitle() : String</text><text fill="#000000" font-family="sans-serif" font-size="14" lengthAdjust="spacing" textLength="156.7207" x="454.09" y="433.4532">+getContent() : String</text><text fill="#000000" font-family="sans-serif" font-size="14" lengthAdjust="spacing" textLength="123.0811" x="454.09" y="449.7501">+getUser() : User</text></g><g class="entity" data-qualified-name="GMN7" data-source-line="42" id="ent0008"><path d="M468.03,68.49 L468.03,92.19 L432.86,96.19 L468.03,100.19 L468.03,123.8884 A0,0 0 0 0 468.03,123.8884 L660.7976,123.8884 A0,0 0 0 0 660.7976,123.8884 L660.7976,78.49 L650.7976,68.49 L468.03,68.49 A0,0 0 0 0 468.03,68.49" fill="#FEFFDD" style="stroke:#181818;stroke-width:0.5;"/><path d="M650.7976,68.49 L650.7976,78.49 L660.7976,78.49 L650.7976,68.49" fill="#FEFFDD" style="stroke:#181818;stroke-width:0.5;"/><text fill="#000000" font-family="sans-serif" font-size="13" lengthAdjust="spacing" textLength="170.2759" x="474.03" y="85.5569">Utilisateur de l'application</text><text fill="#000000" font-family="sans-serif" font-size="13" lengthAdjust="spacing" textLength="132.3804" x="474.03" y="100.6897">Authentification JWT</text><text fill="#000000" font-family="sans-serif" font-size="13" lengthAdjust="spacing" textLength="171.7676" x="474.03" y="115.8225">Relations bidirectionnelles</text></g><g class="entity" data-qualified-name="GMN10" data-source-line="48" id="ent0011"><path d="M231.23,339.58 L231.23,355.71 L195.94,359.71 L231.23,363.71 L231.23,379.8456 A0,0 0 0 0 231.23,379.8456 L413.5938,379.8456 A0,0 0 0 0 413.5938,379.8456 L413.5938,349.58 L403.5938,339.58 L231.23,339.58 A0,0 0 0 0 231.23,339.58" fill="#FEFFDD" style="stroke:#181818;stroke-width:0.5;"/><path d="M403.5938,339.58 L403.5938,349.58 L413.5938,349.58 L403.5938,339.58" fill="#FEFFDD" style="stroke:#181818;stroke-width:0.5;"/><text fill="#000000" font-family="sans-serif" font-size="13" lengthAdjust="spacing" textLength="134.9702" x="237.23" y="356.6469">R&#244;les : USER, ADMIN</text><text fill="#000000" font-family="sans-serif" font-size="13" lengthAdjust="spacing" textLength="161.3638" x="237.23" y="371.7797">Many-to-Many avec User</text></g><g class="entity" data-qualified-name="GMN13" data-source-line="53" id="ent0014"><path d="M692.2,332.01 L692.2,355.71 L656.97,359.71 L692.2,363.71 L692.2,387.4084 A0,0 0 0 0 692.2,387.4084 L910.6248,387.4084 A0,0 0 0 0 910.6248,387.4084 L910.6248,342.01 L900.6248,332.01 L692.2,332.01 A0,0 0 0 0 692.2,332.01" fill="#FEFFDD" style="stroke:#181818;stroke-width:0.5;"/><path d="M900.6248,332.01 L900.6248,342.01 L910.6248,342.01 L900.6248,332.01" fill="#FEFFDD" style="stroke:#181818;stroke-width:0.5;"/><text fill="#000000" font-family="sans-serif" font-size="13" lengthAdjust="spacing" textLength="197.4248" x="698.2" y="349.0769">Notes avec texte riche (HTML)</text><text fill="#000000" font-family="sans-serif" font-size="13" lengthAdjust="spacing" textLength="165.9785" x="698.2" y="364.2097">Appartient &#224; un seul User</text><text fill="#000000" font-family="sans-serif" font-size="13" lengthAdjust="spacing" textLength="163.3062" x="698.2" y="379.3425">Audit&#233; automatiquement</text></g><!--link User to Note--><g class="link" data-entity-1="ent0002" data-entity-2="ent0004" data-link-type="association" data-source-line="38" id="lnk5"><path codeLine="38" d="M402.93,185.73 C424.18,210.33 447.37,237.16 469,262.19" fill="none" id="User-Note" style="stroke:#181818;stroke-width:1;"/><polygon fill="#000000" points="447.6791,227.7296,443.9889,218.9642,439.5415,222.8073,447.6791,227.7296" style="stroke:#000000;stroke-width:1;"/><text fill="#000000" font-family="sans-serif" font-size="13" lengthAdjust="spacing" textLength="53.9995" x="453.41" y="228.4469">poss&#232;de</text><text fill="#000000" font-family="sans-serif" font-size="13" lengthAdjust="spacing" textLength="8.271" x="400.7198" y="205.5353">1</text><text fill="#000000" font-family="sans-serif" font-size="13" lengthAdjust="spacing" textLength="6.5" x="456.4035" y="251.2209">*</text></g><!--link User to Role--><g class="link" data-entity-1="ent0002" data-entity-2="ent0003" data-link-type="association" data-source-line="39" id="lnk6"><path codeLine="39" d="M250.24,185.73 C219.51,221.44 184.74,261.86 156.53,294.64" fill="none" id="User-Role" style="stroke:#181818;stroke-width:1;"/><polygon fill="#000000" points="223.1489,227.7365,231.2761,222.797,226.8206,218.9633,223.1489,227.7365" style="stroke:#000000;stroke-width:1;"/><text fill="#000000" font-family="sans-serif" font-size="13" lengthAdjust="spacing" textLength="7.9663" x="235.41" y="228.4469">a</text><text fill="#000000" font-family="sans-serif" font-size="13" lengthAdjust="spacing" textLength="6.5" x="237.9511" y="205.5353">*</text><text fill="#000000" font-family="sans-serif" font-size="13" lengthAdjust="spacing" textLength="6.5" x="156.2577" y="283.7766">*</text></g><!--SRC=[dLDDRzim3BtxLt2vhEqMOBi6WG6ZBR1iIJ0a3eOTLOj9XCcIPr7xnFxBZkjz_o1_RAJik4NHvh2BRV8zakz9z3EDM-CGhfVbhFm8bLKXPE6JSOrgLTt51L5hRYBXhF9kRNuWlCgolc0Ji8MV6S0OZ8O9pBtRmNJw_bsUfsHatAaQ6LfpbmH6Ppv7x0aD3_ZgMpqGKhPgKH7gWbBBIjah3ajJew1ZVho07T9CdvttCu-fJJyl0KF31AsynT3baQOIvKTewQc7vYRGLC8y-pMO5EufawSCdXAxV5oeUBWJAj5zCIBkb1WoPF71QNf7wEY-n3VbOjuNd3nhY8t-lvieHSSZxYuxCK_uJcdv4CTfkKQlHpm8HXUZple46X_2uOz6o7l6nS18DpK1nL3cXDsQtPx0RxkU01iorWIs45lW3lQvQXfhAaN6EuQBI7iMPxPz2jv-A3czGfl203T6cnOh2HnQNgWCdGOPzN2WI97ImrzcYQdrzUeb55UBsPBJ2-M-ZycFvGtg2rQTmAUQYNEkIdlQqGc_9KArHpYJspmN-Gt_jcJahW-_8Je86EtHUX6reSCjg4Y-PZkyeZKpXvd_0000]--></g></svg>